# xmcd CD database file
#
# Track frame offsets:
#	150
#	14841
#	38182
#	48904
#	72529
#	89633
#	111524
#	146462
#	159593
#	176172
#	190913
#	203066
#	218591
#	231106
#	258695
#	274734
#	293838
#	304949
#
# Disc length: 4320 seconds
#
# Revision: 1
# Processed by: cddbd v1.5.2PL0 Copyright (c) Steve Scherf et al.
# Submitted via: CDex 2.16
#
DISCID=1b10de12
DTITLE=Bert Brandsma with Chris Barber - Highlights
DYEAR=1900
DGENRE=Jazz
TTITLE0=Wildcat Blues
TTITLE1=Precious Lord,take my hand
TTITLE2=Let's dance
TTITLE3=Goin' Home
TTITLE4=Ice Cream
TTITLE5=Hindustan
TTITLE6=Out of nowhere
TTITLE7=Happy Dance
TTITLE8=Merry-Go-Round
TTITLE9=East St. Louis Toodle-Oo
TTITLE10=Jungle Nights in Harlem
TTITLE11=Blue Christmas
TTITLE12=South
TTITLE13=Spanish Shawl
TTITLE14=Summernight Fiesta
TTITLE15=Halloween in New Orleans
TTITLE16=Cairo
TTITLE17=Theme from Creole Rhapsody
EXTD=
EXTT0=
EXTT1=
EXTT2=
EXTT3=
EXTT4=
EXTT5=
EXTT6=
EXTT7=
EXTT8=
EXTT9=
EXTT10=
EXTT11=
EXTT12=
EXTT13=
EXTT14=
EXTT15=
EXTT16=
EXTT17=
PLAYORDER=
